# xmcd CD database file
#
# Track frame offsets:
#	150
#	13273
#	27680
#	40787
#	53693
#	65861
#	79258
#	93536
#	107786
#	120834
#	132414
#	145482
#	157748
#	171191
#	186539
#	199992
#	211679
#	220661
#	233006
#
# Disc length: 3332 seconds
#
# Revision: 6
# Processed by: cddbd v1.5.2PL0 Copyright (c) Steve Scherf et al.
# Submitted via: CDex 1.51
#
DISCID=140d0213
DTITLE=Lennie Tristano - Solos and Trios  {1946-1947}
DYEAR=2002
DGENRE=Jazz
TTITLE0=What Is This Thing Called Love   [piano solo, 1946]
TTITLE1=Yesterdays   [piano solo, 1946]
TTITLE2=Don't Blame Me   [piano solo, 1946]
TTITLE3=I Found A New Baby   [piano solo, 1946]
TTITLE4=Out On A Limb   [Lennie Tristano Trio, 1946]
TTITLE5=I Can't Get Started With You   [Lennie Tristano Trio, 1946]
TTITLE6=I Surrender Dear   [Lennie Tristano Trio, 1946]
TTITLE7=Interlude   [Lennie Tristano Trio, 1946]
TTITLE8=Blue Boy   [Lennie Tristano Trio, 1947]
TTITLE9=Atonement   [Lennie Tristano Trio, 1947]
TTITLE10=Coolin' Off With Ulanov   [Lennie Tristano Trio, 1947]
TTITLE11=Just Judy   [piano solo, 1947]
TTITLE12=Spontaneous Combustion   [piano solo, 1947]
TTITLE13=Supersonic   [Lennie Tristano Trio, 1947]
TTITLE14=Celestia   [Lennie Tristano Trio, 1947]
TTITLE15=Parallel   [Lennie Tristano Trio, 1947]
TTITLE16=Appelation   [Lennie Tristano Trio, 1947]
TTITLE17=Palimpsest   [Lennie Tristano Trio, 1947]
TTITLE18=Freedom  (Blues)   [Lennie Tristano Trio, 1947]
EXTD=YEAR: 2002
EXTT0=
EXTT1=
EXTT2=
EXTT3=
EXTT4=
EXTT5=
EXTT6=
EXTT7=
EXTT8=
EXTT9=
EXTT10=
EXTT11=
EXTT12=
EXTT13=
EXTT14=
EXTT15=
EXTT16=
EXTT17=
EXTT18=
PLAYORDER=
